<svg width="56" height="56" viewBox="0 0 56 56" fill="none" xmlns="http://www.w3.org/2000/svg">
<g clip-path="url(#clip0_536_3604)">
<path d="M26.166 0.0151871C26.0458 0.0268537 25.6632 0.064187 25.3178 0.092187C17.3635 0.80852 9.91317 5.09835 5.19517 11.6947C2.58654 15.3151 0.89076 19.512 0.252 23.9284C0.0268333 25.466 0 25.9198 0 28.0058C0 30.0907 0.0268333 30.5457 0.252 32.0834C1.77333 42.5973 9.25633 51.4313 19.4052 54.705C21.2228 55.2895 23.1385 55.6897 25.3178 55.93C26.166 56.0233 29.8328 56.0233 30.6822 55.93C34.4435 55.5147 37.6285 54.5837 40.7715 52.9795C41.2522 52.7345 41.3455 52.668 41.2802 52.6132C41.2358 52.5805 39.1837 49.8272 36.7197 46.4998L32.242 40.4518L26.6315 32.1487C23.5445 27.5835 21.0035 23.8514 20.9825 23.8514C20.9603 23.8455 20.9382 27.5345 20.9277 32.039C20.9113 39.9257 20.9055 40.2442 20.8075 40.4297C20.6652 40.698 20.5555 40.8077 20.3257 40.9278C20.1507 41.0154 19.9967 41.0328 19.1707 41.0328H18.2233L17.9713 40.873C17.8156 40.7753 17.6891 40.6375 17.605 40.474L17.4895 40.2278L17.5012 29.253L17.5175 18.2747L17.6867 18.06C17.7742 17.9457 17.9608 17.7975 18.0915 17.7264C18.3167 17.6167 18.4042 17.6062 19.3515 17.6062C20.468 17.6062 20.6535 17.6505 20.944 17.9679C21.0257 18.0554 24.0637 22.631 27.699 28.1423C31.3343 33.6537 36.3043 41.1798 38.7462 44.8747L43.1795 51.59L43.4035 51.4418C45.3915 50.1503 47.4927 48.3117 49.1575 46.396C52.6858 42.3586 54.9745 37.389 55.7492 32.0834C55.9732 30.5445 56 30.0907 56 28.0058C56 25.9198 55.9732 25.466 55.748 23.9284C54.2267 13.4132 46.7437 4.58035 36.5948 1.30669C34.804 0.726854 32.8988 0.326687 30.7638 0.0863537C30.2388 0.0315204 26.621 -0.0291463 26.1672 0.0151871H26.166ZM37.6285 16.9494C37.7588 17.0152 37.8748 17.1062 37.9697 17.2172C38.0646 17.3281 38.1366 17.4568 38.1815 17.5957C38.2258 17.738 38.2363 20.7807 38.2258 27.6384L38.2095 37.4803L36.4735 34.8204L34.7328 32.1604V25.0063C34.7328 20.3817 34.755 17.7812 34.7877 17.6564C34.8267 17.5105 34.8949 17.3741 34.9882 17.2554C35.0814 17.1367 35.1977 17.0382 35.3302 16.9657C35.5542 16.8514 35.6358 16.8397 36.4968 16.8397C37.3065 16.8397 37.4488 16.8514 37.6285 16.9494Z" fill="#3DBFF5"/>
</g>
<defs>
<clipPath id="clip0_536_3604">
<rect width="56" height="56" fill="white"/>
</clipPath>
</defs>
</svg>
