<svg width="56" height="56" viewBox="0 0 56 56" fill="none" xmlns="http://www.w3.org/2000/svg">
<path d="M55.8049 27.9569C55.8049 24.2448 51.1753 20.7268 44.0774 18.5453C45.7154 11.2809 44.9874 5.5014 41.7797 3.65105C41.0404 3.21702 40.1759 3.01142 39.2318 3.01142V5.55851C39.755 5.55851 40.1759 5.66131 40.5285 5.85548C42.0755 6.74639 42.7466 10.1387 42.2233 14.5019C42.0982 15.5756 41.8935 16.7063 41.6432 17.8599C39.4138 17.3117 36.9795 16.8891 34.4202 16.6149C32.8846 14.5019 31.2921 12.583 29.6883 10.904C33.3965 7.44313 36.8772 5.54709 39.2431 5.54709V3C36.1151 3 32.0201 5.2387 27.8797 9.12216C23.7393 5.26154 19.6443 3.04569 16.5162 3.04569V5.59278C18.8708 5.59278 22.3629 7.4774 26.0711 10.9154C24.4786 12.5944 22.8861 14.5019 21.3733 16.6149C18.8026 16.8891 16.3684 17.3117 14.1389 17.8714C13.8773 16.7292 13.6839 15.6212 13.5474 14.559C13.0128 10.1958 13.6725 6.8035 15.2081 5.90117C15.5494 5.69558 15.993 5.6042 16.5162 5.6042V3.05711C15.5608 3.05711 14.6963 3.2627 13.9455 3.69674C10.7492 5.54709 10.0326 11.3152 11.6819 18.5567C4.6068 20.7497 0 24.2562 0 27.9569C0 31.6691 4.62955 35.187 11.7274 37.3686C10.0895 44.633 10.8175 50.4125 14.0252 52.2628C14.7645 52.6968 15.629 52.9024 16.5845 52.9024C19.7126 52.9024 23.8075 50.6637 27.9479 46.7803C32.0884 50.6409 36.1833 52.8567 39.3114 52.8567C40.2669 52.8567 41.1314 52.6512 41.8821 52.2171C45.0784 50.3668 45.795 44.5987 44.1457 37.3572C51.1981 35.1756 55.8049 31.6576 55.8049 27.9569ZM40.9949 20.3385C40.574 21.8119 40.0507 23.331 39.4593 24.8502C38.9929 23.9364 38.5038 23.0227 37.9692 22.1089C37.4459 21.1951 36.8886 20.3042 36.3312 19.4362C37.9464 19.676 39.5048 19.973 40.9949 20.3385ZM35.7852 32.5029C34.898 34.0448 33.988 35.5068 33.0439 36.866C31.349 37.0145 29.6314 37.0945 27.9024 37.0945C26.1848 37.0945 24.4672 37.0145 22.7838 36.8775C21.8397 35.5182 20.9183 34.0677 20.0311 32.5371C19.1666 31.0409 18.3817 29.5217 17.6651 27.9912C18.3703 26.4607 19.1666 24.9301 20.0197 23.4338C20.9069 21.8919 21.8169 20.4299 22.761 19.0707C24.4559 18.9222 26.1735 18.8422 27.9024 18.8422C29.62 18.8422 31.3376 18.9222 33.0211 19.0592C33.9652 20.4185 34.8866 21.869 35.7738 23.3996C36.6383 24.8959 37.4232 26.415 38.1398 27.9455C37.4232 29.476 36.6383 31.0066 35.7852 32.5029ZM39.4593 31.018C40.0735 32.5485 40.5967 34.0791 41.029 35.5639C39.5389 35.9294 37.9692 36.2378 36.3426 36.4777C36.8999 35.5982 37.4573 34.6959 37.9805 33.7707C38.5038 32.8569 38.9929 31.9318 39.4593 31.018ZM27.9252 43.2052C26.8673 42.1087 25.8095 40.8866 24.763 39.5502C25.7867 39.5959 26.8332 39.6301 27.8911 39.6301C28.9603 39.6301 30.0182 39.6073 31.0533 39.5502C30.0295 40.8866 28.9717 42.1087 27.9252 43.2052ZM19.4623 36.4777C17.8471 36.2378 16.2887 35.9409 14.7986 35.5754C15.2195 34.1019 15.7428 32.5828 16.3342 31.0637C16.8006 31.9775 17.2897 32.8912 17.8243 33.805C18.359 34.7187 18.905 35.6096 19.4623 36.4777ZM27.8683 12.7086C28.9262 13.8052 29.984 15.0273 31.0305 16.3637C30.0068 16.318 28.9603 16.2837 27.9024 16.2837C26.8332 16.2837 25.7754 16.3066 24.7402 16.3637C25.764 15.0273 26.8218 13.8052 27.8683 12.7086ZM19.4509 19.4362C18.8936 20.3157 18.3362 21.218 17.813 22.1432C17.2897 23.0569 16.8006 23.9707 16.3342 24.8844C15.72 23.3539 15.1968 21.8233 14.7645 20.3385C16.2546 19.9844 17.8243 19.676 19.4509 19.4362ZM9.15673 33.7364C5.13005 32.0117 2.52521 29.7502 2.52521 27.9569C2.52521 26.1637 5.13005 23.8907 9.15673 22.1774C10.135 21.7548 11.2042 21.3779 12.3076 21.0238C12.9559 23.2625 13.809 25.5926 14.8669 27.9798C13.8204 30.3555 12.9787 32.6742 12.3417 34.9015C11.2156 34.5474 10.1463 34.159 9.15673 33.7364ZM15.2764 50.0584C13.7294 49.1675 13.0583 45.7751 13.5815 41.412C13.7067 40.3383 13.9114 39.2075 14.1617 38.0539C16.3911 38.6022 18.8253 39.0248 21.3847 39.2989C22.9203 41.412 24.5127 43.3309 26.1166 45.0099C22.4084 48.4707 18.9277 50.3668 16.5617 50.3668C16.0499 50.3553 15.6176 50.2525 15.2764 50.0584ZM42.2575 41.3549C42.7921 45.718 42.1323 49.1104 40.5967 50.0127C40.2555 50.2183 39.8119 50.3097 39.2886 50.3097C36.934 50.3097 33.442 48.425 29.7338 44.987C31.3263 43.308 32.9187 41.4005 34.4316 39.2875C37.0023 39.0134 39.4365 38.5908 41.666 38.0311C41.9276 39.1847 42.1323 40.2926 42.2575 41.3549ZM46.6368 33.7364C45.6585 34.159 44.5893 34.536 43.4859 34.89C42.8376 32.6513 41.9845 30.3213 40.9266 27.9341C41.9731 25.5583 42.8148 23.2397 43.4518 21.0124C44.5779 21.3665 45.6472 21.7548 46.6481 22.1774C50.6748 23.9021 53.2797 26.1637 53.2797 27.9569C53.2683 29.7502 50.6635 32.0231 46.6368 33.7364Z" fill="#3DBFF5"/>
<path d="M27.9018 33.147C30.7578 33.147 33.0731 30.8207 33.0731 27.9512C33.0731 25.0816 30.7578 22.7554 27.9018 22.7554C25.0457 22.7554 22.7305 25.0816 22.7305 27.9512C22.7305 30.8207 25.0457 33.147 27.9018 33.147Z" fill="#3DBFF5"/>
</svg>
