<svg width="56" height="56" viewBox="0 0 56 56" fill="none" xmlns="http://www.w3.org/2000/svg">
<path d="M27.9992 11C20.8005 11 16.2985 14.667 14.4996 21.9995C17.1995 18.334 20.3484 16.9577 23.9493 17.8769C26.0052 18.3982 27.471 19.9157 29.0969 21.5952C31.7429 24.3319 34.8077 27.5 41.5004 27.5C48.7007 27.5 53.2011 23.833 55 16.5005C52.3017 20.1676 49.1512 21.5423 45.5503 20.6247C43.4976 20.1034 42.0286 18.5843 40.4027 16.9032C37.7567 14.1681 34.6919 11 27.9992 11ZM14.4996 27.5C7.29929 27.5 2.79889 31.167 1 38.4995C3.69833 34.8324 6.84877 33.4577 10.4497 34.3753C12.5024 34.8966 13.9714 36.4157 15.5973 38.0968C18.2433 40.8319 21.3081 44 27.9992 44C35.2011 44 39.7015 40.333 41.5004 33.0005C38.8005 36.6676 35.65 38.0423 32.0507 37.1247C29.9964 36.6018 28.529 35.0843 26.9031 33.4032C24.2555 30.6681 21.1939 27.5 14.4996 27.5Z" fill="#3DBFF5"/>
</svg>
