<svg width="56" height="56" viewBox="0 0 56 56" fill="none" xmlns="http://www.w3.org/2000/svg">
<g clip-path="url(#clip0_536_3595)">
<g clip-path="url(#clip1_536_3595)">
<path fill-rule="evenodd" clip-rule="evenodd" d="M5.46875 0H50.5312C53.5516 0 56 2.44844 56 5.46875V50.5312C56 53.5516 53.5516 56 50.5312 56H5.46875C2.44844 56 0 53.5516 0 50.5312V5.46875C0 2.44844 2.44844 0 5.46875 0ZM34.6652 50.0374V44.562C35.658 45.3948 36.7364 46.0193 37.9004 46.4356C39.0645 46.852 40.2398 47.0601 41.4267 47.0601C42.1228 47.0601 42.7304 46.9975 43.2497 46.8719C43.7689 46.7464 44.2026 46.5725 44.5506 46.3501C44.8987 46.1276 45.1583 45.8653 45.3295 45.563C45.5007 45.2607 45.5863 44.9328 45.5863 44.5792C45.5863 44.1 45.4494 43.6722 45.1755 43.2959C44.9015 42.9194 44.5278 42.5715 44.0542 42.2521C43.5807 41.9327 43.0186 41.6247 42.3682 41.3281C41.7177 41.0315 41.0158 40.7293 40.2627 40.4213C38.3455 39.6227 36.9161 38.6474 35.9747 37.4954C35.0332 36.3432 34.5625 34.9515 34.5625 33.3203C34.5625 32.0427 34.8193 30.9448 35.3328 30.0266C35.8463 29.1083 36.5452 28.3526 37.4297 27.7594C38.3142 27.1662 39.3384 26.7299 40.5023 26.4505C41.6663 26.171 42.8987 26.0312 44.1997 26.0312C45.4778 26.0312 46.6105 26.1082 47.5976 26.2622C48.5847 26.4163 49.4948 26.6529 50.3278 26.9723V32.0884C49.917 31.8032 49.4691 31.5523 48.9841 31.3355C48.4991 31.1188 47.9999 30.9391 47.4864 30.7965C46.9727 30.654 46.4621 30.5484 45.9542 30.48C45.4464 30.4116 44.9643 30.3774 44.5079 30.3774C43.8802 30.3774 43.3097 30.4372 42.796 30.557C42.2825 30.6767 41.849 30.8451 41.4951 31.0617C41.1414 31.2785 40.8675 31.538 40.6735 31.8403C40.4795 32.1426 40.3825 32.482 40.3825 32.8583C40.3825 33.269 40.491 33.6369 40.7077 33.962C40.9245 34.2871 41.2326 34.5951 41.6321 34.886C42.0315 35.1769 42.5165 35.462 43.0871 35.7416C43.6577 36.021 44.3025 36.309 45.0214 36.6056C46.0028 37.0162 46.8844 37.4525 47.6661 37.9145C48.4478 38.3765 49.1182 38.8985 49.6774 39.4802C50.2366 40.062 50.6645 40.7264 50.9612 41.4736C51.2579 42.2207 51.4062 43.0905 51.4062 44.0829C51.4062 45.4518 51.1466 46.601 50.6274 47.5307C50.1082 48.4603 49.4035 49.2133 48.5134 49.7892C47.6233 50.3653 46.5876 50.7789 45.4065 51.0298C44.2253 51.2808 42.9787 51.4062 41.6663 51.4062C40.3197 51.4062 39.0388 51.2922 37.8234 51.064C36.608 50.8359 35.5553 50.4937 34.6652 50.0374ZM32.4844 31.0715H25.4603V51.0781H19.896V31.0715H12.9062V26.5781H32.4844V31.0715Z" fill="#3DBFF5"/>
</g>
</g>
<defs>
<clipPath id="clip0_536_3595">
<rect width="56" height="56" fill="white"/>
</clipPath>
<clipPath id="clip1_536_3595">
<rect width="56" height="56" fill="white"/>
</clipPath>
</defs>
</svg>
